# xmcd
#
# Track frame offsets:
#	150
#	18081
#	40144
#	61594
#	76788
#	110950
#	127179
#	144822
#	163813
#	179809
#	197270
#	223971
#
# Disc length: 3211 seconds
# Revision: 0
# Processed by: cddbd v1.5.1PL0 Copyright (c) Steve Scherf et al.
# Submitted via: cdrLabel 7.1
#
DISCID=a60c890c
DTITLE=Kenny Chesney - No SHoes, No Shirt, No Problems
DYEAR=2002
DGENRE=Country
TTITLE0=Kenny Chesney - No Shoes, No Shirt, No Problems
TTITLE1=Young
TTITLE2=I Remember
TTITLE3=A Lot Of Things Different
TTITLE4=The Good Stuff
TTITLE5=Big Star
TTITLE6=On The Coast Of Somewhere Beautiful
TTITLE7=Never Gonna Feel Like That Again
TTITLE8=Dreams
TTITLE9=No Shoes, No Shirt, No Problems
TTITLE10=Live Those Songs
TTITLE11=One Step Up
EXTD=
EXTT0=
EXTT1=
EXTT2=
EXTT3=
EXTT4=
EXTT5=
EXTT6=
EXTT7=
EXTT8=
EXTT9=
EXTT10=
EXTT11=
PLAYORDER=
